<svg preserveAspectRatio="none" width="292" height="351" viewBox="0 0 292 351" fill="none" xmlns="http://www.w3.org/2000/svg">
<g filter="url(#filter0_b_4701_229)">
<path d="M274.527 0.419922H235.527C228.253 0.4435 221.151 2.62701 215.121 6.69342C209.091 10.7598 204.405 16.5259 201.657 23.2599C197.136 34.2646 189.446 43.6769 179.564 50.301C169.682 56.9251 158.054 60.4619 146.157 60.4619C134.26 60.4619 122.631 56.9251 112.749 50.301C102.867 43.6769 95.1771 34.2646 90.6567 23.2599C87.9087 16.5259 83.2223 10.7598 77.1921 6.69342C71.1619 2.62701 64.0597 0.4435 56.7866 0.419922H17.7866C13.2779 0.419922 8.95393 2.21099 5.76581 5.39911C2.57769 8.58723 0.78656 12.9112 0.78656 17.4199V333.5C0.78656 338.009 2.57769 342.333 5.76581 345.521C8.95393 348.709 13.2779 350.5 17.7866 350.5H274.527C279.035 350.5 283.359 348.709 286.547 345.521C289.735 342.333 291.527 338.009 291.527 333.5V17.4199C291.527 12.9112 289.735 8.58723 286.547 5.39911C283.359 2.21099 279.035 0.419922 274.527 0.419922Z" fill="url(#paint0_linear_4701_229)" fill-opacity="0.1"/>
<path d="M202.119 23.4499L202.12 23.4488C204.83 16.8065 209.453 11.119 215.401 7.10797C221.348 3.0971 228.354 0.943338 235.527 0.919922H274.527C278.903 0.919922 283.099 2.65831 286.194 5.75266C289.288 8.84702 291.027 13.0439 291.027 17.4199V333.5C291.027 337.876 289.288 342.073 286.194 345.167C283.099 348.262 278.903 350 274.527 350H17.7866C13.4105 350 9.21371 348.262 6.11936 345.167C3.02501 342.073 1.28656 337.876 1.28656 333.5V17.4199C1.28656 13.0439 3.02501 8.84702 6.11936 5.75266C9.21371 2.65831 13.4105 0.919922 17.7866 0.919922H56.7857C63.9595 0.943338 70.9647 3.0971 76.9125 7.10797C82.8606 11.119 87.4832 16.8065 90.1937 23.4488L90.1942 23.4499C94.7523 34.5462 102.506 44.0371 112.471 50.7164C122.435 57.3957 134.161 60.9619 146.157 60.9619C158.153 60.9619 169.878 57.3957 179.843 50.7164C189.807 44.0371 197.561 34.5462 202.119 23.4499Z" stroke="url(#paint1_linear_4701_229)"/>
</g>
<defs>
<filter id="filter0_b_4701_229" x="-99.2134" y="-99.5801" width="490.74" height="550.08" filterUnits="userSpaceOnUse" color-interpolation-filters="sRGB">
<feFlood flood-opacity="0" result="BackgroundImageFix"/>
<feGaussianBlur in="BackgroundImageFix" stdDeviation="50"/>
<feComposite in2="SourceAlpha" operator="in" result="effect1_backgroundBlur_4701_229"/>
<feBlend mode="normal" in="SourceGraphic" in2="effect1_backgroundBlur_4701_229" result="shape"/>
</filter>
<linearGradient id="paint0_linear_4701_229" x1="146.157" y1="0.419922" x2="146.157" y2="376.5" gradientUnits="userSpaceOnUse">
<stop stop-color="#626A88"/>
<stop offset="1" stop-color="#2E3149"/>
</linearGradient>
<linearGradient id="paint1_linear_4701_229" x1="146.157" y1="0.419922" x2="146.157" y2="376.5" gradientUnits="userSpaceOnUse">
<stop stop-color="#ECF0FF" stop-opacity="0.1"/>
<stop offset="1" stop-color="#2E3149" stop-opacity="0"/>
</linearGradient>
</defs>
</svg>

