<svg width="291" height="351" viewBox="0 0 291 351" fill="none" xmlns="http://www.w3.org/2000/svg"><path d="M273.855 0.897552H234.855C227.582 0.92113 220.48 3.10464 214.449 7.17105C208.419 11.2375 203.733 17.0035 200.985 23.7375C196.465 34.7422 188.775 44.1546 178.893 50.7787C169.01 57.4028 157.382 60.9395 145.485 60.9395C133.588 60.9395 121.96 57.4028 112.078 50.7787C102.195 44.1546 94.5056 34.7422 89.9852 23.7375C87.2373 17.0035 82.5508 11.2375 76.5206 7.17105C70.4904 3.10464 63.3882 0.92113 56.1151 0.897552H17.1151C12.6064 0.897552 8.28244 2.68862 5.09432 5.87674C1.9062 9.06486 0.115067 13.3889 0.115067 17.8975V333.978C0.115067 338.487 1.9062 342.811 5.09432 345.999C8.28244 349.187 12.6064 350.978 17.1151 350.978H273.855C278.364 350.978 282.688 349.187 285.876 345.999C289.064 342.811 290.855 338.487 290.855 333.978V17.8975C290.855 13.3889 289.064 9.06486 285.876 5.87674C282.688 2.68862 278.364 0.897552 273.855 0.897552Z" fill="black"/></svg>
